<svg id="svg" version="1.1" xmlns="http://www.w3.org/2000/svg" xmlns:xlink="http://www.w3.org/1999/xlink" width="400" height="400" viewBox="0, 0, 400,400"><g id="svgg"><path id="path0" d="M148.338 38.683 C 147.620 38.793,147.197 39.159,147.033 39.811 C 146.795 40.760,146.707 40.778,141.695 40.888 C 136.779 40.996,136.596 41.031,136.474 41.886 C 136.355 42.726,136.135 42.779,132.274 42.886 C 128.393 42.995,128.194 43.043,128.072 43.900 C 127.947 44.784,127.845 44.800,122.401 44.800 C 116.864 44.800,115.600 45.103,115.600 46.429 C 115.600 46.633,114.453 46.800,113.050 46.800 C 109.518 46.800,107.932 47.174,107.700 48.061 C 107.555 48.616,107.129 48.800,105.986 48.800 C 103.854 48.800,103.200 49.139,103.200 50.243 C 103.200 51.167,103.097 51.200,100.208 51.200 C 97.396 51.200,97.201 51.257,96.978 52.145 C 96.760 53.013,96.473 53.111,93.470 53.352 C 90.949 53.554,90.052 53.790,89.555 54.383 C 89.118 54.905,88.283 55.192,86.955 55.276 C 85.377 55.376,84.924 55.573,84.605 56.300 C 84.300 56.996,83.881 57.200,82.755 57.200 C 80.319 57.200,78.707 57.670,78.506 58.438 C 78.403 58.832,77.797 59.269,77.159 59.409 C 76.270 59.604,76.000 59.889,76.000 60.632 C 76.000 61.527,75.849 61.600,74.000 61.600 C 72.145 61.600,72.000 61.671,72.000 62.579 C 72.000 63.478,71.828 63.568,69.900 63.679 C 68.071 63.784,67.784 63.916,67.672 64.700 C 67.569 65.429,67.289 65.600,66.205 65.600 C 64.371 65.600,63.600 65.955,63.600 66.799 C 63.600 67.227,63.199 67.614,62.600 67.764 C 61.869 67.948,61.600 68.283,61.600 69.008 C 61.600 69.799,61.398 70.000,60.600 70.000 C 59.800 70.000,59.600 70.200,59.600 71.000 C 59.600 71.798,59.399 72.000,58.608 72.000 C 57.889 72.000,57.548 72.269,57.370 72.977 C 57.221 73.572,56.787 74.002,56.262 74.077 C 55.540 74.180,55.380 74.505,55.279 76.075 C 55.177 77.656,55.021 77.969,54.279 78.075 C 53.406 78.199,53.399 78.263,53.293 87.500 L 53.185 96.800 54.193 96.800 C 55.000 96.800,55.200 96.998,55.200 97.800 C 55.200 98.598,55.401 98.800,56.192 98.800 C 56.911 98.800,57.252 99.069,57.430 99.776 C 57.643 100.626,57.967 100.783,59.937 100.995 C 61.182 101.130,62.513 101.410,62.895 101.620 C 63.277 101.829,64.472 102.000,65.552 102.000 C 66.927 102.000,67.583 102.179,67.745 102.600 C 67.921 103.060,68.679 103.200,70.987 103.200 C 73.934 103.200,74.000 103.222,74.000 104.200 C 74.000 104.988,74.203 105.200,74.958 105.200 C 76.056 105.200,78.400 107.211,78.400 108.153 C 78.400 108.500,78.840 108.895,79.377 109.030 C 80.057 109.201,80.391 109.598,80.477 110.338 C 80.564 111.087,80.865 111.438,81.500 111.528 C 82.380 111.653,82.400 111.769,82.400 116.828 L 82.400 122.000 83.400 122.000 C 84.400 122.000,84.400 122.000,83.600 122.800 C 82.344 124.056,82.344 172.108,83.600 172.893 C 84.643 173.544,84.612 173.914,83.500 174.072 L 82.600 174.200 82.497 200.100 L 82.394 226.000 81.397 226.000 L 80.400 226.000 80.400 243.772 L 80.400 261.544 79.516 261.672 C 78.386 261.836,78.090 262.924,78.040 267.100 C 78.018 268.948,77.829 270.400,77.610 270.400 C 76.890 270.400,76.000 272.744,75.985 274.680 C 75.971 276.471,75.849 276.694,74.185 277.998 C 73.203 278.767,72.400 279.610,72.400 279.872 C 72.400 280.133,71.905 280.404,71.300 280.473 C 70.523 280.563,70.163 280.857,70.075 281.475 C 69.998 282.021,69.621 282.398,69.075 282.475 C 68.521 282.554,68.153 282.930,68.072 283.500 C 67.973 284.200,67.683 284.400,66.772 284.400 C 65.789 284.400,65.600 284.561,65.600 285.400 C 65.600 286.333,65.467 286.400,63.600 286.400 C 61.733 286.400,61.600 286.467,61.600 287.400 C 61.600 288.142,61.388 288.400,60.779 288.400 C 60.229 288.400,59.822 288.791,59.546 289.584 C 59.319 290.235,58.810 290.870,58.414 290.995 C 56.600 291.571,56.593 313.200,58.406 313.200 C 58.792 313.200,59.403 313.650,59.763 314.200 C 60.124 314.750,60.684 315.200,61.009 315.200 C 61.399 315.200,61.600 315.608,61.600 316.400 C 61.600 317.413,61.756 317.600,62.600 317.600 C 63.400 317.600,63.600 317.800,63.600 318.600 C 63.600 319.530,63.737 319.600,65.548 319.600 C 67.473 319.600,67.498 319.617,67.728 321.036 C 68.041 322.964,68.616 323.561,70.441 323.853 C 71.412 324.008,72.060 324.359,72.202 324.806 C 72.522 325.814,73.554 325.988,79.236 325.995 C 84.217 326.000,84.277 326.011,84.727 327.000 L 85.183 328.000 124.391 328.000 L 163.600 328.000 163.600 327.009 L 163.600 326.019 170.500 325.909 C 177.222 325.803,177.410 325.777,177.795 324.900 C 178.128 324.140,178.502 323.999,180.195 323.995 C 182.860 323.987,183.925 323.665,184.206 322.782 C 184.333 322.380,184.834 321.994,185.319 321.925 C 185.943 321.837,186.237 321.480,186.327 320.700 C 186.426 319.836,186.662 319.600,187.427 319.600 C 188.198 319.600,188.400 319.393,188.400 318.600 C 188.400 317.655,188.520 317.600,190.600 317.600 C 192.680 317.600,192.800 317.545,192.800 316.600 C 192.800 315.800,193.000 315.600,193.800 315.600 C 194.659 315.600,194.802 315.417,194.811 314.300 C 194.820 313.274,195.120 312.789,196.235 312.000 C 199.000 310.043,198.823 310.939,198.707 299.465 C 198.600 289.025,198.598 289.000,197.720 288.875 C 196.961 288.767,196.824 288.463,196.720 286.675 C 196.617 284.900,196.475 284.582,195.738 284.477 C 195.213 284.402,194.779 283.972,194.630 283.377 C 194.411 282.505,194.172 282.400,192.392 282.400 C 190.534 282.400,190.400 282.333,190.400 281.400 C 190.400 280.600,190.200 280.400,189.400 280.400 C 188.608 280.400,188.400 280.198,188.400 279.428 C 188.400 278.724,188.151 278.420,187.500 278.328 C 186.737 278.219,186.570 277.896,186.400 276.200 C 186.230 274.504,186.063 274.181,185.300 274.072 C 184.518 273.961,184.400 273.707,184.400 272.130 C 184.400 270.671,184.204 270.161,183.400 269.529 L 182.400 268.742 182.400 258.771 L 182.400 248.800 183.400 248.800 C 184.137 248.800,184.400 249.013,184.400 249.610 C 184.400 250.093,184.781 250.565,185.345 250.779 C 185.865 250.977,186.392 251.526,186.516 251.999 C 186.639 252.472,187.096 252.952,187.530 253.066 C 188.107 253.217,188.391 253.747,188.584 255.035 C 188.795 256.439,189.039 256.845,189.786 257.032 C 190.302 257.162,190.818 257.626,190.933 258.064 C 191.047 258.501,191.505 258.955,191.950 259.071 C 192.592 259.239,192.784 259.669,192.880 261.141 C 192.983 262.734,193.132 263.019,193.922 263.131 C 194.455 263.206,194.998 263.669,195.212 264.231 C 195.414 264.764,195.782 265.200,196.030 265.200 C 196.277 265.200,196.983 265.740,197.600 266.400 C 198.371 267.225,199.101 267.600,199.940 267.600 C 201.128 267.600,201.161 267.653,201.279 269.700 C 201.384 271.529,201.516 271.816,202.300 271.928 C 202.921 272.016,203.200 272.328,203.200 272.933 C 203.200 273.459,203.560 273.968,204.100 274.205 C 204.795 274.510,205.028 274.987,205.123 276.300 C 205.232 277.802,205.360 278.000,206.223 278.000 C 207.001 278.000,207.200 278.206,207.200 279.010 C 207.200 279.808,207.447 280.069,208.378 280.256 C 209.181 280.416,209.595 280.763,209.678 281.346 C 209.753 281.872,210.138 282.248,210.679 282.325 C 211.421 282.431,211.577 282.744,211.679 284.325 C 211.782 285.921,211.934 286.219,212.700 286.328 C 213.351 286.420,213.600 286.724,213.600 287.428 C 213.600 288.198,213.808 288.400,214.600 288.400 C 215.388 288.400,215.600 288.603,215.600 289.357 C 215.600 290.031,215.881 290.384,216.552 290.552 C 217.076 290.684,217.598 291.151,217.713 291.591 C 217.828 292.031,218.379 292.564,218.937 292.776 C 219.773 293.094,219.974 293.465,220.076 294.881 C 220.178 296.298,220.354 296.622,221.075 296.725 C 221.621 296.802,221.998 297.179,222.075 297.725 C 222.154 298.279,222.530 298.647,223.100 298.728 C 223.882 298.839,224.000 299.093,224.000 300.663 C 224.000 302.303,224.111 302.511,225.200 302.922 C 225.874 303.177,226.400 303.668,226.400 304.044 C 226.400 304.422,226.830 304.821,227.388 304.961 C 227.932 305.098,228.568 305.567,228.803 306.005 C 229.037 306.442,229.492 306.800,229.814 306.800 C 230.229 306.800,230.400 307.258,230.400 308.371 C 230.400 310.008,230.637 310.346,232.951 312.000 C 233.720 312.550,234.541 313.414,234.775 313.921 C 235.010 314.427,235.851 315.113,236.645 315.444 C 237.438 315.776,238.179 316.397,238.290 316.824 C 238.432 317.366,238.841 317.600,239.647 317.600 C 240.610 317.600,240.800 317.765,240.800 318.600 C 240.800 319.393,241.002 319.600,241.773 319.600 C 242.538 319.600,242.774 319.836,242.873 320.700 C 242.963 321.480,243.257 321.837,243.881 321.925 C 244.366 321.994,244.867 322.380,244.994 322.782 C 245.377 323.989,245.370 323.989,292.674 323.995 C 338.377 324.000,340.400 323.941,340.400 322.610 C 340.400 322.127,340.933 322.000,342.967 322.000 C 346.169 322.000,346.800 321.763,346.800 320.557 C 346.800 319.676,346.958 319.600,348.792 319.600 C 350.584 319.600,350.810 319.499,351.036 318.600 C 351.250 317.746,351.516 317.600,352.852 317.600 C 354.114 317.600,354.501 317.415,354.853 316.644 C 355.092 316.118,355.718 315.492,356.244 315.253 C 356.770 315.013,357.200 314.563,357.200 314.252 C 357.200 313.941,357.650 313.574,358.200 313.436 C 359.099 313.210,359.200 312.984,359.200 311.192 C 359.200 309.358,359.276 309.200,360.157 309.200 C 361.160 309.200,361.600 308.541,361.600 307.039 C 361.600 306.547,362.050 305.753,362.600 305.275 C 364.154 303.923,364.149 291.934,362.593 290.458 C 362.047 289.940,361.600 289.163,361.600 288.732 C 361.600 287.493,360.843 286.400,359.986 286.400 C 359.414 286.400,359.200 286.127,359.200 285.400 C 359.200 284.600,359.000 284.400,358.200 284.400 C 357.400 284.400,357.200 284.200,357.200 283.400 C 357.200 282.608,356.998 282.400,356.228 282.400 C 355.524 282.400,355.220 282.151,355.128 281.500 C 355.037 280.862,354.687 280.564,353.925 280.476 C 353.172 280.389,352.812 280.089,352.725 279.476 C 352.626 278.780,352.210 278.525,350.700 278.233 C 349.081 277.920,348.800 277.728,348.800 276.933 C 348.800 276.080,348.628 276.000,346.800 276.000 C 344.933 276.000,344.800 275.933,344.800 275.000 C 344.800 274.204,344.599 274.000,343.813 274.000 C 342.930 274.000,341.550 272.871,339.684 270.622 C 339.401 270.280,338.574 270.000,337.848 270.000 C 336.829 270.000,336.425 269.773,336.073 269.000 C 335.822 268.450,335.347 268.000,335.016 268.000 C 334.686 268.000,334.306 267.566,334.173 267.035 C 334.031 266.470,333.541 265.972,332.993 265.834 C 332.419 265.690,332.006 265.250,331.928 264.699 C 331.847 264.130,331.478 263.754,330.925 263.675 C 330.379 263.598,330.002 263.221,329.925 262.675 C 329.849 262.141,329.470 261.753,328.955 261.679 C 328.490 261.613,327.909 261.118,327.663 260.579 C 327.418 260.041,326.939 259.600,326.599 259.600 C 326.259 259.600,325.809 259.150,325.600 258.600 C 325.391 258.050,324.949 257.600,324.618 257.600 C 324.286 257.600,323.902 257.148,323.763 256.597 C 323.613 255.998,323.135 255.499,322.579 255.359 C 322.025 255.220,321.596 254.774,321.523 254.262 C 321.447 253.730,321.065 253.352,320.525 253.275 C 319.979 253.198,319.602 252.821,319.525 252.275 C 319.447 251.730,319.070 251.353,318.524 251.275 C 317.911 251.188,317.611 250.828,317.524 250.075 C 317.436 249.313,317.138 248.963,316.500 248.872 C 315.849 248.780,315.600 248.476,315.600 247.772 C 315.600 247.016,315.389 246.800,314.651 246.800 C 313.850 246.800,313.662 246.545,313.440 245.160 C 313.254 243.995,312.949 243.459,312.389 243.313 C 311.955 243.200,311.600 242.768,311.600 242.353 C 311.600 241.458,308.660 238.400,307.800 238.400 C 307.427 238.400,307.200 238.022,307.200 237.400 C 307.200 236.600,307.000 236.400,306.200 236.400 C 305.286 236.400,305.200 236.250,305.200 234.656 C 305.200 233.263,304.999 232.761,304.200 232.161 C 303.650 231.748,303.200 231.183,303.200 230.905 C 303.200 230.627,302.750 230.400,302.200 230.400 C 301.504 230.400,301.200 230.181,301.200 229.680 C 301.200 229.284,300.984 228.744,300.720 228.480 C 300.456 228.216,299.916 228.000,299.520 228.000 C 298.923 228.000,298.800 227.659,298.800 226.000 C 298.800 224.133,298.733 224.000,297.800 224.000 C 297.000 224.000,296.800 223.800,296.800 223.000 C 296.800 222.200,296.600 222.000,295.800 222.000 C 294.878 222.000,294.800 221.856,294.800 220.163 C 294.800 218.649,294.656 218.287,293.984 218.112 C 293.535 217.994,292.901 217.381,292.574 216.749 C 292.235 216.094,291.652 215.600,291.218 215.600 C 290.732 215.600,290.409 215.274,290.328 214.700 C 290.248 214.140,289.879 213.754,289.349 213.679 C 288.724 213.589,288.438 213.191,288.274 212.180 C 288.124 211.254,287.455 210.216,286.225 209.004 C 285.139 207.933,284.398 206.839,284.395 206.302 C 284.385 204.693,283.930 203.632,283.144 203.382 C 282.040 203.032,280.400 201.286,280.400 200.462 C 280.400 199.557,279.635 198.800,278.720 198.800 C 278.219 198.800,278.000 198.496,278.000 197.800 C 278.000 197.000,277.800 196.800,277.000 196.800 C 276.378 196.800,276.000 196.573,276.000 196.200 C 276.000 195.870,276.180 195.600,276.400 195.600 C 276.620 195.600,276.800 195.240,276.800 194.800 C 276.800 194.360,276.620 194.000,276.400 194.000 C 276.180 194.000,276.000 193.730,276.000 193.400 C 276.000 193.027,275.622 192.800,275.000 192.800 C 274.081 192.800,274.000 192.654,274.000 190.991 C 274.000 189.450,273.852 189.115,273.000 188.727 C 272.360 188.436,272.000 187.944,272.000 187.362 C 272.000 185.758,271.271 184.400,270.410 184.400 C 269.705 184.400,269.600 184.141,269.600 182.400 C 269.600 180.527,269.664 180.400,270.613 180.400 C 271.209 180.400,271.734 180.113,271.890 179.700 C 272.230 178.802,273.023 178.000,273.571 178.000 C 273.807 178.000,274.000 177.550,274.000 177.000 C 274.000 176.067,274.133 176.000,276.000 176.000 C 277.867 176.000,278.000 175.933,278.000 175.000 C 278.000 174.067,278.134 174.000,279.992 174.000 C 281.756 174.000,282.012 173.891,282.223 173.050 C 282.354 172.528,282.898 171.902,283.431 171.659 C 283.991 171.403,284.400 170.876,284.400 170.409 C 284.400 169.688,284.658 169.600,286.771 169.600 C 289.028 169.600,290.400 168.994,290.400 167.998 C 290.400 167.808,290.895 167.596,291.500 167.527 C 292.288 167.436,292.636 167.144,292.728 166.500 C 292.841 165.706,293.087 165.600,294.828 165.600 C 296.655 165.600,296.800 165.528,296.800 164.618 C 296.800 163.675,296.919 163.630,299.700 163.518 C 302.266 163.414,302.646 163.296,302.995 162.500 C 303.325 161.748,303.703 161.600,305.295 161.600 C 306.343 161.600,307.200 161.420,307.200 161.200 C 307.200 160.980,307.820 160.800,308.577 160.800 C 309.492 160.800,310.139 160.537,310.504 160.015 C 310.977 159.341,311.611 159.215,315.027 159.115 C 318.686 159.009,319.031 158.930,319.388 158.116 C 319.601 157.630,320.141 157.180,320.588 157.116 C 321.073 157.047,321.450 156.645,321.525 156.119 C 321.594 155.634,322.010 155.124,322.448 154.985 C 322.887 154.845,323.411 154.297,323.613 153.766 C 323.815 153.235,324.259 152.800,324.600 152.800 C 325.752 152.800,326.000 150.775,326.000 141.348 C 326.000 131.937,325.800 130.400,324.576 130.400 C 324.248 130.400,323.809 129.950,323.600 129.400 C 323.391 128.850,322.966 128.400,322.655 128.400 C 322.293 128.400,321.994 127.756,321.821 126.601 C 321.530 124.657,320.810 124.000,318.972 124.000 C 318.334 124.000,317.513 123.591,316.965 123.000 C 316.381 122.370,315.603 122.000,314.862 122.000 C 313.942 122.000,313.632 121.783,313.436 121.000 C 313.196 120.046,313.049 120.000,310.219 120.000 C 307.281 120.000,307.252 119.990,307.127 118.900 C 307.009 117.877,306.855 117.792,304.942 117.681 C 303.358 117.589,302.840 117.395,302.695 116.841 C 302.454 115.920,300.835 115.600,296.414 115.600 C 293.084 115.600,292.908 115.555,292.473 114.600 L 292.017 113.600 265.182 113.600 C 238.202 113.600,236.800 113.670,236.800 115.014 C 236.800 115.490,236.045 115.600,232.791 115.600 C 228.922 115.600,228.767 115.634,228.335 116.584 C 227.928 117.475,227.621 117.578,225.043 117.684 C 222.272 117.797,222.197 117.828,222.073 118.900 C 221.953 119.950,221.847 120.000,219.773 120.000 C 217.722 120.000,217.600 120.056,217.600 121.000 C 217.600 121.933,217.467 122.000,215.600 122.000 C 213.745 122.000,213.600 122.071,213.600 122.978 C 213.600 123.861,213.415 123.968,211.702 124.078 L 209.804 124.200 209.465 126.066 C 209.193 127.565,208.936 127.979,208.163 128.174 C 207.307 128.388,207.200 128.636,207.200 130.408 C 207.200 132.271,207.135 132.400,206.191 132.400 L 205.182 132.400 205.291 139.500 C 205.399 146.521,205.410 146.601,206.300 146.728 C 206.870 146.809,207.200 147.132,207.200 147.609 C 207.200 149.565,208.848 151.200,210.819 151.200 C 211.524 151.200,211.600 151.491,211.600 154.200 C 211.600 157.133,211.578 157.200,210.600 157.200 C 209.904 157.200,209.600 157.419,209.600 157.920 C 209.600 158.842,208.842 159.600,207.920 159.600 C 207.423 159.600,207.200 159.903,207.200 160.577 C 207.200 161.440,207.002 161.568,205.500 161.677 C 204.199 161.771,203.709 162.007,203.413 162.682 C 203.110 163.373,202.634 163.589,201.213 163.682 C 199.681 163.782,199.380 163.939,199.272 164.700 C 199.167 165.437,198.892 165.600,197.746 165.600 C 196.070 165.600,194.800 166.210,194.800 167.014 C 194.800 167.372,194.412 167.600,193.800 167.600 C 193.002 167.600,192.800 167.801,192.800 168.592 C 192.800 169.622,192.324 169.860,189.800 170.090 C 188.902 170.172,188.568 170.426,188.472 171.100 C 188.262 172.579,182.400 172.482,182.400 171.000 C 182.400 170.210,182.198 170.000,181.437 170.000 C 179.930 170.000,179.880 167.610,180.047 102.627 L 180.200 43.000 179.100 42.873 C 178.334 42.785,178.000 42.518,178.000 41.993 C 178.000 41.578,177.342 40.600,176.539 39.819 L 175.077 38.400 162.239 38.460 C 155.177 38.493,148.922 38.593,148.338 38.683 " stroke="none" fill="#0c8ce4" fill-rule="evenodd"></path><path id="path1" d="" stroke="none" fill="#108ce4" fill-rule="evenodd"></path><path id="path2" d="" stroke="none" fill="#108ce4" fill-rule="evenodd"></path><path id="path3" d="" stroke="none" fill="#108ce4" fill-rule="evenodd"></path><path id="path4" d="" stroke="none" fill="#108ce4" fill-rule="evenodd"></path></g></svg>