<?xml version="1.0" standalone="no"?>
<!DOCTYPE svg PUBLIC "-//W3C//DTD SVG 20010904//EN"
 "http://www.w3.org/TR/2001/REC-SVG-20010904/DTD/svg10.dtd">
<svg version="1.0" xmlns="http://www.w3.org/2000/svg"
 width="73.000000pt" height="73.000000pt" viewBox="0 0 73.000000 73.000000"
 preserveAspectRatio="xMidYMid meet">
<metadata>
Created by potrace 1.14, written by Peter Selinger 2001-2017
</metadata>
<g transform="translate(0.000000,73.000000) scale(0.100000,-0.100000)"
fill="#000000" stroke="none">
<path d="M199 620 c-1 -18 -1 -408 0 -463 1 -23 5 -36 11 -32 5 3 10 0 10 -7
0 -9 15 -13 50 -13 57 0 53 -8 50 121 -1 45 3 64 15 74 15 12 19 11 35 -10 11
-14 25 -36 32 -50 7 -14 21 -34 31 -44 9 -11 17 -23 17 -28 0 -4 12 -21 28
-36 22 -22 36 -27 74 -27 25 0 49 3 53 7 4 3 -13 35 -36 70 -24 35 -65 95 -91
135 l-47 71 80 98 c76 94 94 127 67 121 -7 -1 -12 4 -11 11 3 13 5 13 -56 16
-46 1 -53 -2 -86 -48 -11 -16 -24 -33 -30 -40 -5 -6 -25 -28 -42 -49 l-33 -38
0 71 c0 38 -4 70 -9 70 -5 0 -12 8 -15 18 -8 23 -96 25 -97 2z"/>
</g>
</svg>
