<?xml version="1.0" standalone="no"?>
<!DOCTYPE svg PUBLIC "-//W3C//DTD SVG 20010904//EN"
 "http://www.w3.org/TR/2001/REC-SVG-20010904/DTD/svg10.dtd">
<svg version="1.0" xmlns="http://www.w3.org/2000/svg"
 width="1095.000000pt" height="1095.000000pt" viewBox="0 0 1095.000000 1095.000000"
 preserveAspectRatio="xMidYMid meet">
<metadata>
Created by potrace 1.14, written by Peter Selinger 2001-2017
</metadata>
<g transform="translate(0.000000,1095.000000) scale(0.100000,-0.100000)"
fill="#000000" stroke="none">
<path d="M3005 6864 c-129 -27 -250 -79 -341 -148 -33 -24 -216 -178 -408
-342 -372 -318 -422 -370 -490 -509 -57 -118 -80 -220 -79 -365 0 -148 21
-238 83 -362 61 -122 127 -196 324 -365 611 -523 586 -503 699 -557 184 -89
-69 -81 2717 -81 2368 0 2468 1 2535 19 90 23 236 92 301 142 29 21 91 75 140
119 49 44 138 125 199 180 61 55 151 136 199 180 49 44 95 84 103 88 41 24
149 170 193 262 64 134 84 221 84 365 -1 231 -85 432 -245 586 -71 69 -677
584 -754 642 -78 58 -180 107 -279 132 -78 20 -104 20 -2520 19 -1343 -1
-2450 -3 -2461 -5z m4950 -92 c79 -26 151 -57 205 -88 66 -38 779 -643 840
-711 59 -67 114 -164 147 -258 24 -72 27 -94 28 -220 0 -120 -3 -151 -23 -215
-30 -95 -80 -190 -134 -257 -60 -73 -707 -652 -773 -692 -30 -18 -82 -44 -115
-58 -141 -56 10 -53 -2663 -51 l-2462 3 -80 28 c-153 54 -156 56 -656 483
-162 138 -309 269 -327 290 -52 62 -109 165 -138 250 -25 71 -28 93 -28 224
-1 162 10 212 71 334 51 102 104 167 212 259 53 45 107 91 121 103 218 189
533 451 573 477 68 44 173 85 256 102 96 19 4886 16 4946 -3z"/>
<path d="M4927 6234 c-4 -4 -7 -369 -7 -811 l0 -803 170 0 170 0 -2 808 -3
807 -161 3 c-88 1 -163 -1 -167 -4z"/>
<path d="M5752 6148 c-37 -51 -87 -120 -111 -153 -134 -189 -282 -398 -320
-452 l-43 -62 92 -148 c51 -81 107 -170 125 -198 18 -27 98 -155 179 -282
l147 -233 200 0 199 0 -73 113 c-222 340 -384 587 -460 702 -22 33 -40 65 -40
70 0 6 58 89 130 185 341 459 393 531 393 540 0 6 -65 10 -175 10 l-175 0 -68
-92z"/>
<path d="M2082 5718 l3 -43 145 0 145 0 3 43 3 42 -151 0 -151 0 3 -42z"/>
<path d="M8530 5715 l0 -46 148 3 147 3 3 43 3 42 -150 0 -151 0 0 -45z"/>
<path d="M2087 5544 c-4 -4 -7 -25 -7 -46 l0 -38 151 0 150 0 -3 43 -3 42
-141 3 c-77 1 -143 -1 -147 -4z"/>
<path d="M8537 5544 c-4 -4 -7 -25 -7 -46 l0 -38 151 0 150 0 -3 43 -3 42
-141 3 c-77 1 -143 -1 -147 -4z"/>
<path d="M2080 5285 l0 -46 148 3 147 3 0 40 0 40 -147 3 -148 3 0 -46z"/>
<path d="M8530 5285 l0 -45 151 0 150 0 -3 43 -3 42 -147 3 -148 3 0 -46z"/>
</g>
</svg>
